<svg xmlns="http://www.w3.org/2000/svg" viewBox="0 0 220 220" role="img" aria-label="Gatito manga feliz">
  <defs>
    <pattern id="dots3" x="0" y="0" width="9" height="9" patternUnits="userSpaceOnUse">
      <circle cx="2.6" cy="2.6" r="1.1" fill="#64748b"/>
    </pattern>
  </defs>
  <rect width="220" height="220" rx="28" fill="#eff6ff"/>
  <rect x="14" y="14" width="192" height="192" rx="24" fill="url(#dots3)" opacity="0.26"/>
  <g fill="#fff" stroke="#111827" stroke-width="6" stroke-linecap="round" stroke-linejoin="round">
    <path d="M58 82l19-38 20 36"/>
    <path d="M162 82l-19-38-20 36"/>
    <ellipse cx="110" cy="126" rx="66" ry="54"/>
  </g>
  <path d="M78 122q10-14 20 0" stroke="#111827" stroke-width="6" fill="none" stroke-linecap="round"/>
  <path d="M122 122q10-14 20 0" stroke="#111827" stroke-width="6" fill="none" stroke-linecap="round"/>
  <path d="M104 143q6 8 12 0" stroke="#111827" stroke-width="5" fill="none" stroke-linecap="round"/>
  <path d="M98 154q12 12 24 0" stroke="#111827" stroke-width="5" fill="none" stroke-linecap="round"/>
  <path d="M66 138H44M66 148H46M154 138h22M154 148h20" stroke="#111827" stroke-width="4" stroke-linecap="round"/>
  <circle cx="74" cy="153" r="7" fill="#60a5fa" opacity="0.52"/>
  <circle cx="146" cy="153" r="7" fill="#60a5fa" opacity="0.52"/>
  <path d="M32 58q14-18 28 0" stroke="#111827" stroke-width="4" fill="none"/>
</svg>
