<svg xmlns="http://www.w3.org/2000/svg" viewBox="0 0 220 220" role="img" aria-label="Gatito manga guiñando un ojo">
  <defs>
    <pattern id="dots1" x="0" y="0" width="8" height="8" patternUnits="userSpaceOnUse">
      <circle cx="2" cy="2" r="1.2" fill="#94a3b8"/>
    </pattern>
  </defs>
  <rect width="220" height="220" rx="28" fill="#fff7ed"/>
  <rect x="16" y="16" width="188" height="188" rx="24" fill="url(#dots1)" opacity="0.3"/>
  <g fill="#fff" stroke="#111827" stroke-width="6" stroke-linecap="round" stroke-linejoin="round">
    <path d="M56 78l22-36 18 40"/>
    <path d="M164 78l-22-36-18 40"/>
    <ellipse cx="110" cy="124" rx="66" ry="56"/>
  </g>
  <path d="M82 124q12-14 24 0" stroke="#111827" stroke-width="6" fill="none" stroke-linecap="round"/>
  <path d="M126 125h20" stroke="#111827" stroke-width="6" stroke-linecap="round"/>
  <path d="M104 146q6 6 12 0" stroke="#111827" stroke-width="5" fill="none" stroke-linecap="round"/>
  <circle cx="110" cy="139" r="3.8" fill="#111827"/>
  <path d="M66 136h-18M66 146H48M154 136h18M154 146h18" stroke="#111827" stroke-width="4" stroke-linecap="round"/>
  <path d="M90 170q20 16 40 0" stroke="#f43f5e" stroke-width="5" fill="none" opacity="0.85"/>
  <path d="M40 38l12 6-7 11" stroke="#111827" stroke-width="4" fill="none"/>
</svg>
